<svg viewBox="0 0 1039 490" fill="none" xmlns="http://www.w3.org/2000/svg">
    <path d="M76.1011 86.9876C74.0612 85.8471 73.328 83.2644 74.4654 81.219C75.6029 79.1736 78.1786 78.4384 80.2184 79.5789C82.2677 80.7194 82.9915 83.3021 81.8541 85.3475C81.0833 86.7425 79.645 87.5249 78.1598 87.5249C77.4641 87.5249 76.7591 87.3552 76.1011 86.9876ZM86.5354 73.9611C85.3698 71.9346 86.056 69.3425 88.0771 68.1737C90.0982 66.9955 92.6833 67.693 93.8583 69.7195C95.0239 71.7461 94.3377 74.3382 92.3166 75.5164C91.6492 75.9028 90.916 76.0819 90.2016 76.0819C88.7351 76.0819 87.3157 75.3279 86.5354 73.9611Z" fill="white"/>
    <path d="M206.296 119.243L88.7919 51.8105C87.9365 51.3204 86.8837 51.3109 86.0188 51.7916C85.0036 52.3572 61.0704 65.9586 50.8616 90.1452C50.7018 90.5128 50.6266 90.9181 50.636 91.314V91.3517C50.6454 91.5591 50.683 91.7664 50.73 91.9644L55.9284 126.557C56.1258 128.131 56.3514 129.62 58.5793 130.271L169.024 162.601C169.268 162.667 169.512 162.705 169.757 162.705C169.87 162.705 169.982 162.705 170.105 162.686L201.803 156.899C202.921 156.748 203.824 155.9 204.049 154.787C204.265 153.675 207.697 122.052 207.697 122.052H207.678C207.819 120.93 207.283 119.818 206.286 119.252L206.296 119.243ZM87.4289 57.5414L196.247 119.987L172.803 123.088L57.3855 89.4477C65.9962 71.8686 82.6065 60.5576 87.4289 57.5414Z" fill="white"/>
    <path d="M27.9718 191.001C27.6898 191.001 27.4172 190.973 27.1446 190.916C26.872 190.869 26.6088 190.784 26.355 190.681C26.0918 190.577 25.8474 190.445 25.6218 190.285C25.3868 190.134 25.1705 189.955 24.9825 189.757C24.1929 188.975 23.7417 187.881 23.7417 186.76C23.7417 185.638 24.1929 184.554 24.9825 183.762C25.1705 183.564 25.3868 183.395 25.6218 183.234C25.8474 183.084 26.0918 182.952 26.355 182.848C26.6088 182.735 26.872 182.659 27.1446 182.603C27.6898 182.49 28.2539 182.49 28.7991 182.603C29.0623 182.659 29.3349 182.735 29.5887 182.848C29.8425 182.952 30.0869 183.084 30.3125 183.234C30.5475 183.395 30.7637 183.564 30.9611 183.762C31.7508 184.554 32.202 185.647 32.202 186.76C32.202 187.033 32.1738 187.316 32.1174 187.589C32.061 187.862 31.9764 188.126 31.873 188.381C31.7696 188.645 31.638 188.89 31.4876 189.116C31.3278 189.352 31.1585 189.569 30.9611 189.757C30.7637 189.955 30.5475 190.134 30.3125 190.285C30.0869 190.445 29.8425 190.577 29.5887 190.681C29.3349 190.784 29.0623 190.869 28.7991 190.916C28.5265 190.973 28.2445 191.001 27.9718 191.001Z" fill="white"/>
    <path d="M47.1861 330.852C46.0486 328.797 46.7912 326.224 48.8311 325.083C50.8804 323.943 53.4561 324.687 54.5841 326.733C55.7215 328.788 54.9789 331.37 52.9391 332.501C52.2904 332.859 51.5854 333.039 50.8898 333.039C49.4045 333.039 47.9569 332.247 47.1861 330.852ZM39.8632 315.921C38.9326 313.772 39.9196 311.274 42.0629 310.341C44.2062 309.408 46.6972 310.398 47.6279 312.547C48.5585 314.696 47.5715 317.194 45.4282 318.127C44.883 318.363 44.3096 318.476 43.7455 318.476C42.1099 318.476 40.5588 317.524 39.8632 315.921ZM33.9504 300.425C33.2172 298.201 34.411 295.797 36.6295 295.062C38.8386 294.317 41.2357 295.514 41.9783 297.739C42.7209 299.963 41.5177 302.367 39.3086 303.102C38.8574 303.253 38.4062 303.328 37.9643 303.328C36.1971 303.328 34.5426 302.207 33.9504 300.425ZM29.3443 284.524C28.7802 282.252 30.1621 279.952 32.4276 279.387C34.7024 278.821 36.9961 280.198 37.5601 282.469C38.1242 284.75 36.7423 287.05 34.4768 287.616C34.129 287.7 33.7906 287.738 33.4522 287.738C31.5533 287.738 29.8237 286.456 29.3443 284.524ZM25.9319 268.359C25.5371 266.049 27.0694 263.853 29.3725 263.448C31.6661 263.043 33.8658 264.579 34.27 266.888C34.6742 269.198 33.1326 271.394 30.8389 271.799C30.5851 271.846 30.3407 271.865 30.0963 271.865C28.0846 271.865 26.2986 270.414 25.9319 268.359ZM23.6101 252.024C23.3563 249.696 25.0295 247.594 27.3514 247.339C29.6733 247.085 31.7601 248.763 32.0233 251.091C32.2772 253.409 30.6039 255.511 28.282 255.766C28.1222 255.785 27.9624 255.794 27.812 255.794C25.6875 255.794 23.8545 254.192 23.6101 252.024ZM22.2846 235.595C22.1624 233.257 23.9485 231.259 26.2892 231.136C28.6204 231.014 30.6133 232.814 30.7355 235.152C30.8483 237.499 29.0622 239.488 26.731 239.61C26.6558 239.61 26.5806 239.61 26.5054 239.61C24.2681 239.61 22.3974 237.847 22.2846 235.585V235.595ZM26.1011 223.388C23.7605 223.388 21.871 221.484 21.8804 219.137C21.8898 216.79 23.7887 214.896 26.1199 214.905C28.4606 214.905 30.3501 216.818 30.3407 219.156C30.3407 221.503 28.4418 223.388 26.1105 223.388H26.1011ZM26.3456 207.166C24.0143 207.035 22.2282 205.027 22.3692 202.689C22.5008 200.352 24.4937 198.561 26.825 198.693C29.1657 198.825 30.9423 200.832 30.8107 203.17C30.6885 205.423 28.8178 207.166 26.59 207.166H26.3456Z" fill="white"/>
    <path d="M59.4631 346.8C58.3444 346.8 57.254 346.348 56.4738 345.556C56.2763 345.358 56.0977 345.141 55.9473 344.906C55.7875 344.679 55.6559 344.434 55.5525 344.18C55.4491 343.925 55.3645 343.652 55.3175 343.388C55.2611 343.115 55.2329 342.832 55.2329 342.559C55.2329 342.285 55.2611 342.002 55.3175 341.729C55.3645 341.456 55.4491 341.192 55.5525 340.928C55.6559 340.673 55.7875 340.428 55.9473 340.202C56.0977 339.967 56.2763 339.75 56.4738 339.552C57.4514 338.571 58.9084 338.119 60.2903 338.392C60.5535 338.449 60.8261 338.534 61.0799 338.637C61.3337 338.741 61.5781 338.873 61.8131 339.024C62.0387 339.184 62.255 339.363 62.4524 339.552C62.6498 339.75 62.8284 339.967 62.9788 340.202C63.1292 340.428 63.2608 340.673 63.3642 340.928C63.4676 341.192 63.5522 341.456 63.6086 341.729C63.665 342.002 63.6932 342.276 63.6932 342.559C63.6932 342.841 63.665 343.115 63.6086 343.388C63.5522 343.652 63.4676 343.925 63.3642 344.18C63.2608 344.434 63.1292 344.679 62.9788 344.906C62.8284 345.141 62.6498 345.358 62.4524 345.556C62.255 345.754 62.0387 345.924 61.8131 346.084C61.5781 346.235 61.3337 346.367 61.0799 346.47C60.8261 346.574 60.5535 346.659 60.2903 346.715C60.0177 346.772 59.7357 346.8 59.4631 346.8Z" fill="white"/>
    <path d="M425.746 161.904C425.474 161.904 425.192 161.876 424.919 161.819C424.646 161.772 424.383 161.687 424.129 161.583C423.876 161.47 423.631 161.348 423.396 161.187C423.171 161.037 422.954 160.858 422.757 160.66C422.56 160.471 422.381 160.254 422.231 160.019C422.08 159.792 421.949 159.538 421.836 159.283C421.732 159.029 421.648 158.765 421.601 158.492C421.544 158.218 421.516 157.936 421.516 157.662C421.516 156.55 421.967 155.457 422.757 154.665C422.954 154.467 423.171 154.288 423.396 154.137C423.631 153.986 423.876 153.854 424.129 153.751C424.383 153.637 424.646 153.562 424.919 153.505C426.291 153.223 427.749 153.675 428.736 154.665C429.525 155.457 429.976 156.55 429.976 157.662C429.976 157.936 429.948 158.218 429.892 158.492C429.835 158.765 429.76 159.029 429.647 159.283C429.544 159.538 429.412 159.792 429.262 160.019C429.112 160.254 428.933 160.471 428.736 160.66C427.946 161.451 426.855 161.904 425.746 161.904Z" fill="white"/>
    <path d="M434.357 271.045C432.073 270.546 430.625 268.293 431.123 266.002C431.612 263.712 433.868 262.251 436.152 262.75C438.437 263.25 439.884 265.503 439.386 267.793C438.963 269.782 437.205 271.139 435.259 271.139C434.959 271.139 434.658 271.111 434.357 271.045ZM437.337 255.436C435.024 255.163 433.36 253.061 433.633 250.733C433.896 248.404 436.002 246.745 438.324 247.009C440.646 247.283 442.3 249.394 442.037 251.713C441.783 253.881 439.95 255.464 437.835 255.464C437.675 255.464 437.506 255.464 437.337 255.436ZM438.85 239.619C436.519 239.554 434.686 237.593 434.761 235.246C434.836 232.908 436.782 231.07 439.113 231.146C441.454 231.221 443.287 233.172 443.212 235.519C443.146 237.81 441.266 239.629 438.991 239.629C438.944 239.629 438.897 239.629 438.85 239.619ZM434.63 219.693C434.526 217.356 436.331 215.376 438.662 215.263C440.994 215.15 442.977 216.96 443.08 219.297C443.193 221.645 441.388 223.624 439.057 223.737H438.85C436.613 223.737 434.733 221.965 434.63 219.693ZM433.332 204.188C433.05 201.86 434.695 199.739 437.017 199.466C439.339 199.173 441.445 200.832 441.727 203.161C442.009 205.479 440.364 207.6 438.042 207.883C437.873 207.902 437.694 207.911 437.525 207.911C435.419 207.911 433.595 206.337 433.332 204.188ZM430.86 188.824C430.399 186.533 431.885 184.29 434.169 183.828C436.463 183.366 438.69 184.846 439.16 187.146C439.621 189.446 438.136 191.68 435.842 192.142C435.56 192.198 435.278 192.227 435.006 192.227C433.031 192.227 431.274 190.841 430.86 188.824ZM427.137 173.79C426.47 171.546 427.748 169.181 429.986 168.511C432.223 167.833 434.583 169.105 435.25 171.358C435.917 173.601 434.648 175.958 432.411 176.636C432.007 176.759 431.593 176.815 431.189 176.815C429.375 176.815 427.692 175.628 427.137 173.79Z" fill="white"/>
    <path d="M431.048 286.456C429.939 286.456 428.848 286.004 428.059 285.221C427.871 285.024 427.692 284.807 427.532 284.571C427.382 284.345 427.25 284.1 427.147 283.836C427.043 283.581 426.959 283.317 426.902 283.044C426.855 282.771 426.827 282.497 426.827 282.215C426.827 281.932 426.855 281.659 426.902 281.385C426.959 281.121 427.043 280.848 427.147 280.593C427.25 280.339 427.382 280.094 427.532 279.858C427.692 279.632 427.871 279.415 428.059 279.217C428.848 278.425 429.939 277.973 431.048 277.973C432.157 277.973 433.257 278.425 434.047 279.217C434.235 279.415 434.413 279.632 434.573 279.858C434.723 280.094 434.855 280.339 434.958 280.593C435.062 280.848 435.146 281.121 435.203 281.385C435.259 281.659 435.287 281.941 435.287 282.215C435.287 282.488 435.259 282.771 435.203 283.044C435.146 283.317 435.062 283.581 434.958 283.836C434.855 284.1 434.723 284.345 434.573 284.571C434.413 284.807 434.235 285.024 434.047 285.221C433.257 286.004 432.167 286.456 431.048 286.456Z" fill="white"/>
    <path d="M430.305 86.1958C430.305 85.4135 430.183 66.8446 419.626 56.9193C418.78 56.1275 417.549 55.9296 416.496 56.4197L354.162 85.7434C353.749 85.9413 353.382 86.2335 353.1 86.6105L342.318 101.023C342.092 101.324 341.942 101.673 341.848 102.022V102.069C341.801 102.267 341.773 102.465 341.773 102.672L338.943 124.578C338.774 125.878 338.502 126.944 339.169 127.792C339.846 128.97 341.416 128.829 341.585 128.791L418.743 114.747C419.983 114.501 420.839 114.068 421.572 112.013C421.817 111.316 430.145 87.1667 430.145 87.1667C430.258 86.865 430.314 86.5446 430.314 86.2052L430.305 86.1958ZM357.199 90.5694L417.069 62.4051C422.785 68.9749 424.204 79.3338 424.552 83.9053L351.258 98.5059L357.199 90.5694Z" fill="white"/>
    <path d="M411.636 77.9294C409.916 76.3364 409.812 73.6501 411.401 71.9346C412.99 70.2097 415.669 70.106 417.38 71.6989C419.1 73.2919 419.194 75.9782 417.615 77.6937C416.778 78.5986 415.641 79.051 414.503 79.051C413.478 79.051 412.444 78.6834 411.636 77.9294Z" fill="white"/>
    <path d="M206.568 196.977C206.07 196.346 175.989 169.03 175.143 169.02H175.058C174.664 168.813 174.212 168.681 173.752 168.672L9.12404 165.976C7.8174 165.919 6.68936 166.815 6.35095 168.068C6.01254 169.312 -1.83673 199.117 0.40055 240.911C2.45922 279.528 13.984 335.838 57.1973 384.796C57.5263 385.173 57.9587 385.437 58.4193 385.587C58.4193 385.597 58.4193 385.616 58.4193 385.616L103.428 397.813C104.481 398.067 105.129 398.02 105.891 397.662C106.258 397.492 106.775 396.823 107.122 396.295L159.257 309.851C159.689 309.154 159.783 308.296 159.51 307.523L153.673 291.254L195.608 233.785C184.694 238.894 163.327 247.038 139.394 246.161C135.803 246.029 132.287 245.699 128.865 245.209L107.959 270.602C107.329 271.375 107.141 272.421 107.48 273.354L113.721 290.754L58.9363 378.198C58.5415 377.736 58.1749 377.274 57.7801 376.812C18.6936 330.145 8.01481 277.36 6.04074 240.807C4.16068 206.083 9.55646 179.21 11.2861 171.669L138.707 173.752L170.189 174.27L163.618 202.991L158.674 209.005C174.936 212.709 186.677 220.033 193.897 225.792C178.32 221.541 162.547 219.967 150.025 219.505L145.429 225.085C159.275 225.349 178.452 226.923 196.576 232.456L199.433 228.544C199.697 228.224 199.885 227.847 199.979 227.441L207.076 199.221C207.255 198.429 207.076 197.609 206.578 196.968L206.568 196.977Z" fill="white"/>
    <path d="M135.803 434.687C133.857 433.395 133.321 430.766 134.618 428.814C135.906 426.854 138.529 426.326 140.475 427.617C142.421 428.909 142.956 431.538 141.668 433.49C140.851 434.724 139.506 435.394 138.134 435.394C137.335 435.394 136.527 435.167 135.803 434.687ZM122.266 422.414C120.931 420.491 121.411 417.843 123.328 416.514C125.246 415.175 127.888 415.656 129.213 417.579C130.548 419.502 130.068 422.15 128.151 423.479C127.418 423.998 126.572 424.243 125.744 424.243C124.4 424.243 123.084 423.602 122.266 422.414Z" fill="white"/>
    <path d="M242.148 473.615L221.515 417.701C220.96 416.165 220.217 415.59 218.798 415.128C217.576 414.704 198.813 407.983 198.813 407.983C198.521 407.88 198.211 407.823 197.882 407.823C196.698 407.823 195.579 408.596 195.194 409.755L171.289 481.278C171.044 482.004 171.11 482.805 171.458 483.484C171.806 484.163 172.426 484.672 173.159 484.889C173.357 484.945 174.607 485.303 176.685 485.624C182.268 486.623 199.828 489.724 202.178 489.894C210.657 490.497 227.841 488.433 241.349 476.462C242.148 475.755 242.459 474.633 242.139 473.615H242.148ZM177.662 480.034L197.816 419.737L214.446 471.758C198.089 481.561 183.622 480.901 177.662 480.034Z" fill="white"/>
    <path d="M230.784 375.54L227.183 354.926C226.845 353.191 225.924 352.616 224.955 351.966C224.645 351.759 197.713 333.501 197.713 333.501C197.563 333.407 197.403 333.322 197.224 333.256C196.247 332.869 195.138 333.077 194.348 333.765L97.7408 418.663C96.735 419.549 96.4906 421.01 97.1392 422.179C97.722 423.216 111.728 447.675 141.678 461.258C141.866 461.343 142.054 461.399 142.242 461.447V461.475L175.369 473.889C175.66 474.021 175.961 474.096 176.262 474.124C177.268 474.2 178.273 473.653 178.772 472.682L182.268 466.273L197.817 419.747L201.445 431.105L230.361 378.094C230.784 377.321 230.934 376.426 230.774 375.559L230.784 375.54ZM157.226 426.854L141.64 454.999C119.615 444.235 107.01 427.061 103.249 421.33L193.991 341.588L195.739 357.301L157.226 426.854Z" fill="white"/>
    <path d="M193.088 469.638C191.866 467.639 192.496 465.028 194.489 463.803C196.482 462.578 199.086 463.209 200.308 465.207C201.521 467.206 200.891 469.817 198.898 471.042C198.212 471.466 197.45 471.664 196.698 471.664C195.279 471.664 193.888 470.938 193.088 469.638Z" fill="white"/>
    <path d="M293.032 324.602C294.865 323.688 296.651 322.727 298.39 321.737L296.285 316.421C294.423 317.505 292.506 318.551 290.532 319.531C267.454 330.993 242.806 331.709 231.676 331.332C252.808 311.293 278.452 301.076 288.811 297.522L288.182 295.929L293.681 295.957C295.053 295.467 295.843 294.006 295.457 292.574C295.053 291.065 293.512 290.179 291.998 290.585C290.551 290.981 259.821 299.502 232.88 322.632C238.642 311.67 250.449 295.382 273.047 284.166C303.711 268.934 328.669 274.731 337.091 277.511C334.008 282.12 327.043 291.659 316.627 301.274L322.474 303.602C336.039 290.613 343.314 278.312 343.784 277.521C344.189 276.833 344.273 276.012 344.038 275.249C343.803 274.485 343.258 273.863 342.544 273.533C341.265 272.93 310.827 259.084 270.537 279.095C248.456 290.057 236.113 305.402 229.486 316.939C223.733 293.092 220.622 269.565 220.227 246.632C219.954 230.91 221.016 216.903 222.652 204.904C224.194 203.453 232.917 195.931 248.503 196.27C249.866 196.289 251.06 195.347 251.332 193.999C251.605 192.651 250.872 191.312 249.603 190.813C249.443 190.747 233.425 184.309 229.242 173.064C231.987 163.459 234.75 156.493 236.47 152.572C241.518 154.222 246.67 155.287 251.859 155.768C251.925 155.768 252 155.777 252.066 155.786C252.103 155.786 252.141 155.786 252.178 155.796C254.369 156.032 256.512 156.154 258.608 156.154C261.174 156.154 263.666 155.975 266.081 155.617C278.668 154.212 290.917 149.396 301.568 141.28C329.571 124.219 337.458 97.4031 338.784 76.3176C340.184 53.9596 334.751 34.4011 332.758 28.1235C332.598 27.3883 332.448 26.8133 332.316 26.4645C331.395 23.9384 329.346 24.1552 328.941 24.2306C319.099 25.9273 310.197 20.3378 305.77 16.8596C304.632 15.9642 303.504 14.8991 302.301 13.5889C298.372 9.30016 284.412 -3.62261 265.273 4.21023C252.084 -2.90625 237.335 1.13742 237.138 1.2034L237.213 1.46732C236.912 1.571 236.621 1.72182 236.367 1.92918C235.258 2.81521 209.116 23.9855 194.874 52.1781L194.818 52.1498C178.8 83.8393 188.632 121.948 216.354 142.26C214.258 146.954 210.911 155.664 207.593 167.39C204.021 180.02 199.997 198.693 198.465 222.144C188.435 213.802 169.465 202.114 141.057 201.059C96.1332 199.39 74.0424 224.557 73.1212 225.632C72.6042 226.235 72.3692 227.027 72.4632 227.818C72.5572 228.61 72.9802 229.317 73.6288 229.779C74.8132 230.627 103.014 250.487 139.196 251.826C140.512 251.873 141.809 251.901 143.107 251.901C166.654 251.901 186.978 244.163 197.835 239.054C197.816 241.269 197.816 243.522 197.845 245.803C197.995 257.387 198.803 269.103 200.242 280.923C197.478 283.779 192.543 287.729 184.496 290.613C183.265 291.056 182.494 292.291 182.644 293.592C182.795 294.892 183.819 295.929 185.117 296.08C185.248 296.099 195.983 297.437 203.532 302.414C207.348 323.141 213.064 344.114 220.669 365.18C229.505 389.631 241.048 414.543 254.97 439.211C256.484 441.897 259.078 443.848 262.077 444.574C262.932 444.781 263.807 444.885 264.681 444.885C266.862 444.885 269.033 444.244 270.876 443.019C275.754 439.786 277.315 433.235 274.429 428.117C261.278 404.816 250.374 381.336 242.007 358.328C239.432 351.24 237.11 344.18 234.985 337.129C235.455 337.129 235.935 337.129 236.442 337.129C249.481 337.129 271.646 335.244 293.042 324.621L293.032 324.602ZM139.393 246.152C111.286 245.115 87.6165 231.919 79.7108 226.989C86.2252 220.985 106.521 205.423 140.841 206.695C166.57 207.647 184.252 218.1 193.878 225.792C160.732 216.752 126.665 219.806 125.067 219.957C123.516 220.108 122.379 221.484 122.52 223.04C122.661 224.595 124.033 225.726 125.594 225.594C125.998 225.556 163.872 222.153 197.657 232.805C187.551 237.772 164.934 247.094 139.393 246.161V246.152ZM238.623 191.369C232.175 192.538 227.277 194.838 223.893 196.93C224.899 190.982 226.036 185.638 227.174 180.944C230.37 185.393 234.741 188.871 238.623 191.369ZM331.442 47.1542C332.833 55.3452 333.82 65.459 333.134 76.1196C331.273 105.01 318.432 125.963 294.912 138.575C307.076 123.098 309.21 102.974 309.304 101.975C309.351 101.532 309.285 101.089 309.126 100.674C303.589 86.3466 292.863 80.8042 282.419 76.8454C282.88 76.8454 283.34 76.8548 283.81 76.8548C292.948 76.8548 303.363 75.1582 312.839 69.5687C324.053 62.9612 329.129 54.1858 331.423 47.1447L331.442 47.1542ZM265.414 53.0264C279.186 61.9149 292.365 58.7856 297.366 57.0418C300.834 61.6887 301.333 66.1283 301.286 68.5884C283.951 74.1779 265.386 69.0314 261.457 67.8061C254.19 62.9235 248.982 57.532 245.307 52.0084C251.718 48.5303 258.947 48.8602 265.405 53.0358L265.414 53.0264ZM242.458 47.1164C241.039 44.3264 239.977 41.5364 239.187 38.784C242.27 36.6538 254.134 29.5656 269.823 33.8355C270.697 37.5116 273.367 46.0419 280.248 52.9322C276.572 52.3006 272.549 50.9056 268.46 48.2664C260.244 42.9597 250.684 42.5921 242.449 47.1164H242.458ZM298.146 17.3969C299.556 18.9333 300.91 20.2152 302.291 21.2898C307.095 25.0695 316.486 30.9701 327.437 30.0935C328.189 34.533 328.33 45.5141 320.81 55.298C317.482 49.9536 313.233 45.5046 308.12 42.0548C295.862 33.7884 294.593 23.8347 294.546 23.4294C294.452 22.4774 293.878 21.6291 293.023 21.1955C288.332 18.7919 283.096 17.0387 277.55 15.9076C275.604 12.7877 273.404 10.2616 271.064 8.20676C285.004 4.66266 295.119 14.079 298.146 17.3781V17.3969ZM240.334 6.23677C245.213 5.26592 259.661 3.5787 269.654 14.7483C259.266 13.7774 248.183 14.8802 237.646 18.085C238.313 12.4201 239.657 8.14078 240.334 6.23677ZM289.225 25.6351C290.08 29.3865 293.314 38.8972 304.971 46.7583C309.84 50.0384 313.797 54.3837 316.815 59.6622C314.879 61.4531 312.632 63.1497 310 64.705C308.956 65.3177 307.903 65.8644 306.832 66.3734C306.503 62.5088 305.055 57.0889 300.355 51.7728C299.528 50.8302 298.165 50.5663 297.037 51.0941C296.783 51.2167 293.925 52.5174 289.563 53.1018C277.512 45.9194 275.049 31.3094 275.031 31.168C274.871 30.1029 274.119 29.2263 273.094 28.9058C256.615 23.7028 243.521 29.5845 237.89 32.9306C237.401 29.8672 237.232 26.917 237.26 24.1552C255.074 18.1887 274.758 18.7542 289.225 25.6445V25.6351ZM199.64 55.1189C199.734 54.9964 199.819 54.8645 199.894 54.7231C209.163 36.3899 224.1 20.7808 232.861 12.5615C232.071 16.6994 231.479 21.9496 231.78 27.7936C232.438 40.6409 237.664 58.8798 258.834 72.8489V72.8866C258.834 72.8866 258.909 72.9149 258.984 72.9431C264.051 76.261 269.898 78.3441 275.557 80.3612C287.119 84.4803 298.052 88.3732 303.626 102.069C303.062 106.292 299.265 129.837 283.237 142.402C277.963 146.54 271.844 149.085 264.963 150.037C260.761 150.47 256.521 150.499 252.301 150.103C251.68 150.037 251.06 149.961 250.439 149.867C250.308 149.848 250.176 149.848 250.045 149.848C242.769 148.915 235.577 146.728 228.753 143.269C196.566 126.915 183.575 87.4494 199.64 55.1095V55.1189ZM236.705 360.241C245.175 383.542 256.221 407.304 269.522 430.878C270.96 433.423 270.189 436.675 267.764 438.278C266.467 439.145 264.916 439.418 263.393 439.05C261.889 438.692 260.639 437.75 259.887 436.402C246.115 412.008 234.713 387.388 225.98 363.229C219.155 344.331 213.882 325.526 210.15 306.91C210.685 306.844 211.221 306.637 211.663 306.25C212.847 305.232 212.979 303.442 211.964 302.263C210.986 301.123 209.877 300.095 208.693 299.162C206.728 297.607 204.538 296.316 202.3 295.251C199.621 293.969 196.886 293.007 194.432 292.291C197.121 290.792 199.339 289.218 201.153 287.719C203.41 285.853 205.045 284.1 206.164 282.724C207.461 281.121 208.072 280.028 208.147 279.896C208.89 278.52 208.382 276.804 207.01 276.06C206.483 275.767 205.901 275.673 205.346 275.739C204.256 265.644 203.635 255.615 203.504 245.699C203.457 242.457 203.475 239.28 203.532 236.17C205.083 235.331 206.013 234.775 206.211 234.652C206.23 234.643 206.239 234.624 206.258 234.614C206.408 234.52 206.549 234.416 206.681 234.284C206.681 234.284 206.7 234.266 206.709 234.256C206.831 234.143 206.935 234.011 207.029 233.879C207.057 233.841 207.085 233.804 207.113 233.757C207.188 233.644 207.254 233.521 207.311 233.389C207.329 233.351 207.348 233.314 207.367 233.266C207.367 233.248 207.386 233.229 207.395 233.21C207.433 233.116 207.442 233.012 207.471 232.918C207.489 232.852 207.518 232.795 207.527 232.729C207.527 232.72 207.527 232.71 207.527 232.701C207.555 232.541 207.565 232.39 207.565 232.23C207.565 232.192 207.565 232.164 207.565 232.126C207.565 231.928 207.527 231.74 207.489 231.551C207.489 231.523 207.47 231.494 207.461 231.457C207.414 231.306 207.367 231.155 207.301 231.014C207.273 230.957 207.235 230.901 207.207 230.844C207.141 230.731 207.085 230.627 207.01 230.524C207 230.505 206.991 230.486 206.982 230.476C206.803 230.241 205.75 228.94 203.861 227.017C205.102 201.916 209.332 182.056 213.054 168.898C216.147 157.936 219.287 150.056 221.298 145.512C222.896 146.493 224.541 147.435 226.243 148.302C227.879 149.132 229.533 149.876 231.206 150.574C229.317 154.91 226.365 162.432 223.47 172.875C219.136 188.503 214.079 214 214.643 246.698C215.075 272.082 218.77 298.163 225.632 324.593C223.498 329.41 222.661 332.624 222.558 333.039C222.558 333.067 222.558 333.105 222.549 333.133C222.52 333.246 222.511 333.359 222.502 333.472C222.502 333.548 222.483 333.623 222.483 333.698C222.483 333.811 222.492 333.934 222.511 334.047C222.511 334.122 222.52 334.188 222.539 334.264C222.567 334.396 222.605 334.528 222.652 334.65C222.671 334.707 222.68 334.754 222.699 334.811C222.774 334.99 222.859 335.15 222.972 335.31C223.075 335.47 223.207 335.612 223.348 335.753C223.385 335.791 223.423 335.81 223.46 335.847C223.573 335.942 223.686 336.036 223.808 336.111C223.855 336.14 223.912 336.158 223.959 336.187C224.081 336.253 224.194 336.309 224.316 336.356C224.382 336.375 224.438 336.394 224.504 336.413C224.626 336.451 224.739 336.479 224.861 336.498C224.889 336.498 224.908 336.517 224.936 336.517C225.209 336.554 226.657 336.724 229.035 336.865C231.328 344.623 233.885 352.409 236.724 360.213L236.705 360.241Z" fill="white"/>
    <path d="M393.362 315.893L344.113 306.147L305.074 290.566C304.745 290.434 304.397 290.368 304.049 290.368L284.045 290.255H284.026C283.199 290.255 282.438 290.632 281.902 291.254C281.902 291.254 258.495 317.232 258.401 317.354C257.894 318.08 257.781 319.013 258.091 319.852L265.395 345.707L265.423 371.571C265.423 372.052 265.555 372.514 265.79 372.929L297.178 426.533C297.676 427.391 298.578 427.872 299.509 427.872C299.96 427.872 300.402 427.74 300.834 427.523C321.562 417.041 328.744 413.375 330.859 412.291C331.235 412.234 331.601 412.102 331.93 411.895C360.677 393.731 376.45 369.507 384.629 352.38C393.493 333.802 395.542 319.663 395.627 319.07C395.834 317.58 394.847 316.195 393.38 315.902L393.362 315.893ZM331.366 405.504L323.273 391.61L299.763 351.259L299.744 334.537V325.677C299.734 325.319 299.669 324.97 299.537 324.64L288.191 295.939L303.485 296.023L342.271 311.501C342.431 311.567 342.6 311.614 342.769 311.651L389.536 320.908C387.204 332.077 375.463 376.331 331.366 405.514V405.504Z" fill="white"/>
    <path d="M368.855 334.009C368.583 334.009 368.301 333.981 368.028 333.925C367.765 333.868 367.492 333.793 367.238 333.689C366.984 333.576 366.74 333.444 366.514 333.293C366.279 333.142 366.063 332.963 365.866 332.765C365.668 332.567 365.499 332.35 365.339 332.124C365.189 331.889 365.057 331.644 364.954 331.389C364.851 331.135 364.766 330.871 364.71 330.597C364.653 330.324 364.625 330.041 364.625 329.768C364.625 329.494 364.653 329.212 364.71 328.938C364.766 328.665 364.851 328.401 364.954 328.147C365.057 327.892 365.189 327.647 365.339 327.411C365.499 327.185 365.668 326.968 365.866 326.77C366.063 326.572 366.279 326.393 366.514 326.243C366.74 326.092 366.984 325.96 367.238 325.847C367.492 325.743 367.765 325.668 368.028 325.611C368.573 325.498 369.137 325.498 369.682 325.611C369.955 325.668 370.218 325.743 370.472 325.847C370.735 325.96 370.98 326.092 371.205 326.243C371.44 326.393 371.656 326.572 371.844 326.77C372.042 326.968 372.22 327.185 372.38 327.411C372.531 327.647 372.662 327.892 372.766 328.147C372.869 328.401 372.954 328.665 373.01 328.938C373.057 329.212 373.085 329.494 373.085 329.768C373.085 330.041 373.057 330.324 373.01 330.597C372.954 330.871 372.869 331.135 372.766 331.389C372.662 331.644 372.531 331.889 372.38 332.124C372.22 332.35 372.042 332.567 371.844 332.765C371.656 332.963 371.44 333.142 371.205 333.293C370.98 333.444 370.735 333.576 370.472 333.689C370.218 333.793 369.955 333.868 369.682 333.925C369.41 333.981 369.137 334.009 368.855 334.009Z" fill="white"/>
    <path d="M341.745 374.682C340.062 373.042 340.034 370.365 341.66 368.677C343.287 367 345.966 366.971 347.639 368.602C349.322 370.233 349.35 372.919 347.724 374.597C346.896 375.455 345.796 375.888 344.697 375.888C343.625 375.888 342.563 375.483 341.745 374.682ZM352.593 362.56C350.675 361.222 350.196 358.582 351.531 356.66C352.856 354.727 355.498 354.256 357.415 355.585C359.333 356.924 359.812 359.563 358.478 361.495C357.66 362.683 356.344 363.314 354.999 363.314C354.172 363.314 353.326 363.069 352.593 362.56ZM361.335 348.827C359.23 347.809 358.346 345.283 359.352 343.171C360.358 341.05 362.886 340.164 364.992 341.173C367.098 342.191 367.991 344.727 366.975 346.838C366.252 348.355 364.738 349.242 363.159 349.242C362.548 349.242 361.927 349.11 361.335 348.827Z" fill="white"/>
    <path d="M332.41 386.53C332.128 386.53 331.856 386.502 331.583 386.445C331.31 386.389 331.047 386.304 330.793 386.2C330.53 386.096 330.286 385.964 330.06 385.814C329.825 385.663 329.609 385.484 329.421 385.286C329.224 385.088 329.045 384.871 328.895 384.645C328.735 384.409 328.603 384.164 328.5 383.91C328.396 383.655 328.312 383.382 328.255 383.118C328.208 382.844 328.18 382.562 328.18 382.288C328.18 381.167 328.631 380.073 329.421 379.291C329.609 379.093 329.825 378.914 330.06 378.763C330.286 378.603 330.53 378.471 330.793 378.367C331.047 378.263 331.31 378.179 331.583 378.122C332.956 377.849 334.413 378.301 335.4 379.291C336.189 380.073 336.64 381.167 336.64 382.288C336.64 382.562 336.612 382.844 336.556 383.118C336.499 383.382 336.415 383.655 336.311 383.91C336.208 384.164 336.076 384.409 335.926 384.645C335.766 384.871 335.597 385.088 335.4 385.286C335.202 385.484 334.986 385.663 334.751 385.814C334.525 385.964 334.281 386.096 334.027 386.2C333.773 386.304 333.501 386.389 333.238 386.445C332.965 386.502 332.683 386.53 332.41 386.53Z" fill="white"/>
    <path d="M461.073 189.314C454.37 154.552 440.965 133.136 440.392 132.25C439.743 131.232 438.512 130.733 437.346 131.015L400.13 140.093L330.972 136.068C330.483 136.039 330.004 136.134 329.562 136.35L286.575 157.54C286.161 157.747 285.823 158.039 285.569 158.388L285.55 158.416C285.353 158.69 285.202 158.991 285.108 159.321L268.432 196.506C267.577 197.948 267.53 198.975 267.887 200.229L277.71 249.253C277.908 249.95 278.378 250.535 279.017 250.874L319.607 274.231C327.635 274.759 333.708 276.361 337.092 277.483C336.246 278.755 335.09 280.405 333.661 282.318L343.494 287.983L367.107 316.449L389.527 320.889C388.859 324.103 387.402 330.051 384.639 337.582L399.228 355.161C399.736 355.755 400.497 356.433 401.635 356.471C402.734 356.481 403.59 356.075 404.408 355.397L439.038 326.978V326.959C439.208 326.77 439.377 326.563 439.499 326.318C468.527 271.13 467.249 221.352 461.073 189.305V189.314ZM436.406 320.003L375.182 249.253C374.956 248.998 374.693 248.781 374.383 248.612L305.573 211.54L291.19 161.564L331.386 141.751L400.224 145.757C400.506 145.776 400.779 145.748 401.052 145.682L436.651 137.001C439.903 142.722 450.159 162.309 455.583 190.624C461.402 221.013 462.661 267.84 436.406 319.993V320.003Z" fill="white"/>
    <path d="M505.725 182.874L507.455 106.584L522.735 105.044L521.005 181.334L505.725 182.874Z" fill="white"/>
    <path d="M576.975 99.5937L575.245 175.884L561.235 177.294L545.615 142.304L544.785 178.944L529.505 180.484L531.235 104.194L545.665 102.954L560.825 139.384L561.695 101.134L576.975 99.5937Z" fill="white"/>
    <path d="M642.215 113.304L642.155 116.094L626.235 117.694L626.295 114.904C626.375 111.574 623.665 109.374 620.375 109.704C617.085 110.034 614.265 112.784 614.195 116.114L613.385 151.784C613.305 155.114 616.015 157.314 619.305 156.984C623.765 156.534 626.155 153.834 626.225 150.494L626.455 140.284L619.875 140.944L620.205 126.434L641.965 124.244L641.405 148.954C641.135 160.774 632.635 171.274 618.945 172.654C606.735 173.884 597.195 165.194 597.465 153.364L598.275 117.694C598.545 105.554 608.525 95.1137 620.735 93.8837C632.945 92.6537 642.495 101.134 642.215 113.274V113.304Z" fill="white"/>
    <path d="M647.845 168.594L649.575 92.3037L688.955 88.3437L688.605 103.714L664.515 106.134L664.175 121.174L681.055 119.474L680.705 134.844L663.825 136.544L663.485 151.694L687.575 149.274L687.225 164.644L647.845 168.604V168.594Z" fill="white"/>
    <path d="M693.595 163.994L695.325 87.7037L710.605 86.1637L708.875 162.454L693.595 163.994Z" fill="white"/>
    <path d="M738.115 82.5437C750.325 81.3137 759.755 90.2337 759.475 102.594L743.555 104.194C743.655 99.8937 740.825 98.3537 737.435 98.6937C734.035 99.0337 731.865 101.504 731.805 103.974C731.745 106.554 732.665 107.854 736.215 110.504L748.915 120.384C756.205 125.974 758.935 131.704 758.825 136.324C758.545 148.684 748.665 159.534 736.455 160.764C724.245 161.994 714.815 153.074 715.095 140.714L730.905 139.124C731.115 143.824 732.985 145.564 736.595 145.204C739.885 144.874 742.155 142.934 742.235 139.494C742.295 136.914 740.745 135.034 735.445 130.634L722.865 120.214C718.915 116.964 715.855 111.694 716.005 105.254C716.255 94.1837 726.125 83.7637 738.335 82.5337L738.125 82.5537L738.115 82.5437Z" fill="white"/>
    <path d="M764.275 156.894L766.005 80.6037L805.385 76.6437L805.035 92.0137L780.945 94.4337L780.605 109.474L797.485 107.784L797.135 123.154L780.255 124.844L779.915 139.994L804.005 137.574L803.655 152.944L764.275 156.904V156.894Z" fill="white"/>
    <path d="M810.025 152.304L811.755 76.0137L827.035 74.4737L825.655 135.294L846.455 133.204L846.105 148.674L810.015 152.294L810.025 152.304Z" fill="white"/>
    <path d="M867.975 146.484L852.475 148.044L854.205 71.7537L869.705 70.1937L869.025 100.384L880.275 99.2537L880.955 69.0637L896.455 67.5037L894.725 143.794L879.225 145.354L879.915 114.734L868.665 115.864L867.975 146.484Z" fill="white"/>
    <path d="M930.685 127.204L917.415 128.534L914.785 141.774L898.975 143.364L917.475 65.3837L933.295 63.7937L948.545 138.384L932.735 139.974L930.695 127.204H930.685ZM920.165 114.654L928.545 113.814L924.835 90.6037L920.165 114.664V114.654Z" fill="white"/>
    <path d="M952.785 137.964L954.515 61.6737L993.895 57.7137L993.545 73.0837L969.455 75.5037L969.115 90.5437L985.995 88.8437L985.645 104.214L968.765 105.914L968.075 136.434L952.795 137.974L952.785 137.964Z" fill="white"/>
    <path d="M1008.19 132.394L1009.57 71.4637L996.195 72.8037L996.545 57.4337L1038.69 53.2037L1038.34 68.5737L1024.86 69.9237L1023.48 130.854L1008.2 132.394H1008.19Z" fill="white"/>
    <path d="M530.065 199.944C536.005 199.344 541.265 201.174 545.215 204.534C548.955 207.914 551.275 213.034 551.135 218.844L550.355 253.234C550.225 259.144 547.665 264.544 543.755 268.694C539.635 272.864 534.275 275.754 528.335 276.354L505.725 278.624L507.455 202.334L530.065 200.064V199.954V199.944ZM528.685 260.874C531.975 260.544 534.575 257.814 534.645 254.704L535.425 220.314C535.495 217.194 533.005 214.984 529.715 215.314L522.815 216.004L521.785 261.564L528.685 260.874Z" fill="white"/>
    <path d="M556.775 273.494L558.505 197.204L597.885 193.244L597.535 208.614L573.445 211.034L573.105 226.074L589.985 224.374L589.635 239.744L572.755 241.444L572.415 256.594L596.505 254.174L596.155 269.544L556.775 273.504V273.494Z" fill="white"/>
    <path d="M623.675 242.004L618.365 242.534L617.805 267.354L602.525 268.894L604.255 192.604L621.765 190.844C638.425 189.174 647.715 199.924 647.405 213.784C647.215 221.954 643.545 229.824 637.705 235.454L647.425 264.384L631.615 265.974L623.685 242.004H623.675ZM631.595 215.154C631.725 209.354 628.735 205.794 621.095 206.564L619.185 206.754L618.745 226.314L620.655 226.124C628.615 225.324 631.445 221.824 631.595 215.164V215.154Z" fill="white"/>
    <path d="M688.335 183.294C700.545 182.064 709.975 190.984 709.695 203.344L693.775 204.944C693.875 200.644 691.045 199.104 687.655 199.444C684.255 199.784 682.085 202.254 682.025 204.724C681.965 207.304 682.885 208.604 686.435 211.254L699.135 221.134C706.425 226.724 709.155 232.454 709.045 237.074C708.765 249.434 698.885 260.284 686.675 261.514C674.465 262.744 665.035 253.824 665.315 241.464L681.125 239.874C681.335 244.564 683.205 246.314 686.815 245.954C690.105 245.624 692.375 243.684 692.455 240.244C692.515 237.664 690.965 235.784 685.665 231.384L673.085 220.964C669.135 217.714 666.075 212.444 666.225 206.004C666.475 194.934 676.345 184.504 688.555 183.284L688.345 183.304L688.335 183.294Z" fill="white"/>
    <path d="M758.785 177.074L757.515 233.274C757.385 239.184 754.825 244.694 750.705 248.864C746.585 253.134 741.115 256.044 735.275 256.634C729.435 257.224 724.075 255.394 720.135 251.934C716.085 248.594 713.755 243.574 713.895 237.654L715.165 181.454L730.345 179.934L729.075 236.134C728.995 239.464 732.235 241.504 735.525 241.174C738.815 240.844 742.055 238.154 742.125 234.824L743.395 178.624L758.785 177.074Z" fill="white"/>
    <path d="M808.745 197.254C808.385 213.054 799.755 224.644 782.665 226.354L780.225 226.604L779.675 251.104L764.285 252.654L766.015 176.364L782.895 174.664C799.985 172.944 809.095 182.004 808.755 197.264L808.745 197.254ZM782.725 209.624C789.945 208.904 793.305 205.564 793.455 198.684C793.595 192.664 790.375 189.564 783.165 190.284L781.045 190.494L780.605 209.834L782.725 209.624Z" fill="white"/>
    <path d="M812.885 247.764L814.615 171.474L853.995 167.514L853.645 182.884L829.555 185.304L829.215 200.344L846.095 198.644L845.745 214.014L828.865 215.714L828.525 230.864L852.615 228.444L852.265 243.814L812.885 247.774V247.764Z" fill="white"/>
    <path d="M879.795 216.274L874.485 216.804L873.925 241.624L858.645 243.164L860.375 166.874L877.885 165.114C894.555 163.444 903.835 174.194 903.525 188.054C903.345 196.224 899.665 204.094 893.825 209.724L903.545 238.654L887.735 240.244L879.805 216.274H879.795ZM887.705 189.424C887.835 183.624 884.845 180.064 877.205 180.834L875.295 181.024L874.855 200.584L876.765 200.394C884.725 199.594 887.555 196.094 887.705 189.434V189.424Z" fill="white"/>
    <path d="M908.455 208.464L908.805 192.994L937.255 190.134L936.905 205.604L908.455 208.464Z" fill="white"/>
    <path d="M526.875 344.324L521.565 344.854L521.005 369.674L505.725 371.214L507.455 294.924L524.965 293.164C541.625 291.494 550.915 302.244 550.605 316.104C550.415 324.274 546.745 332.144 540.905 337.774L550.625 366.704L534.815 368.294L526.885 344.324H526.875ZM534.795 317.474C534.925 311.674 531.935 308.114 524.295 308.884L522.385 309.074L521.945 328.634L523.855 328.444C531.815 327.644 534.645 324.144 534.795 317.484V317.474Z" fill="white"/>
    <path d="M555.925 366.174L557.655 289.884L597.035 285.924L596.685 301.294L572.595 303.714L572.255 318.754L589.135 317.054L588.785 332.424L571.905 334.124L571.565 349.274L595.655 346.854L595.305 362.224L555.925 366.184V366.174Z" fill="white"/>
    <path d="M601.675 361.574L603.405 285.284L618.685 283.744L616.955 360.034L601.675 361.574Z" fill="white"/>
    <path d="M669.285 298.714L669.175 303.444L653.365 305.034L653.475 300.304C653.555 296.974 650.955 294.874 647.665 295.204C644.375 295.534 641.565 298.174 641.485 301.504L640.675 337.394C640.595 340.724 643.305 342.924 646.595 342.594C649.885 342.264 652.575 340.604 652.745 332.974L652.775 331.474L668.585 329.884L668.555 331.384C668.185 347.504 658.235 356.974 646.235 358.174C634.245 359.384 624.585 350.804 624.855 338.984L625.665 303.094C625.935 291.274 636.025 280.714 648.015 279.514C660.005 278.304 669.555 286.894 669.285 298.714Z" fill="white"/>
    <path d="M689.875 352.714L674.375 354.274L676.105 277.984L691.605 276.424L690.925 306.614L702.175 305.484L702.855 275.294L718.355 273.734L716.625 350.024L701.125 351.584L701.815 320.964L690.565 322.094L689.875 352.714Z" fill="white"/>
    <path d="M725.115 349.174L726.845 272.884L766.225 268.924L765.875 284.294L741.785 286.714L741.445 301.754L758.325 300.054L757.975 315.424L741.095 317.124L740.755 332.274L764.845 329.854L764.495 345.224L725.115 349.184V349.174Z" fill="white"/>
    <path d="M818.335 263.694L816.605 339.984L802.595 341.394L786.975 306.404L786.145 343.044L770.865 344.584L772.595 268.294L787.025 267.064L802.195 303.494L803.065 265.244L818.345 263.704L818.335 263.694Z" fill="white"/>
    <path d="M843.945 259.834C856.155 258.604 865.495 266.994 865.225 278.814C865.065 286.014 860.495 291.404 857.145 294.424C855.415 295.994 849.885 301.904 849.785 306.094L849.625 313.294L834.875 314.774L835.085 305.744C835.245 298.654 840.585 291.784 844.825 287.184C847.435 284.354 849.395 281.684 849.415 280.714C849.495 276.954 846.895 275.174 843.605 275.504C839.995 275.864 837.065 278.954 836.985 282.604L821.595 284.154C821.875 272.014 831.855 261.144 843.855 259.944L843.965 259.824L843.945 259.834ZM841.785 322.554C845.605 322.174 849.475 324.354 849.355 329.514C849.245 334.134 845.145 337.764 841.425 338.134C837.815 338.494 833.745 335.684 833.855 331.064C833.955 326.554 837.955 322.934 841.675 322.564H841.785V322.554Z" fill="white"/>
    <path d="M532.835 381.974L531.665 433.664L522.175 434.614L511.595 410.914L511.035 435.734L500.685 436.774L501.855 385.084L511.635 384.244L521.905 408.924L522.495 383.004L532.845 381.964L532.835 381.974Z" fill="white"/>
    <path d="M537.415 433.074L538.585 381.384L548.935 380.344L547.765 432.034L537.415 433.074Z" fill="white"/>
    <path d="M583.225 390.494L583.155 393.694L572.445 394.774L572.515 391.574C572.565 389.314 570.805 387.894 568.575 388.124C566.345 388.344 564.435 390.134 564.385 392.394L563.835 416.704C563.785 418.964 565.615 420.444 567.845 420.224C570.075 420.004 571.895 418.874 572.015 413.704L572.035 412.684L582.745 411.604L582.725 412.624C582.475 423.544 575.735 429.954 567.605 430.774C559.475 431.594 552.935 425.784 553.125 417.774L553.675 393.464C553.855 385.454 560.695 378.304 568.815 377.484C576.935 376.664 583.405 382.484 583.225 390.494Z" fill="white"/>
    <path d="M597.175 427.074L586.675 428.124L587.845 376.434L598.345 375.384L597.885 395.844L605.505 395.074L605.965 374.614L616.465 373.564L615.295 425.254L604.795 426.304L605.265 405.554L597.645 406.324L597.175 427.074Z" fill="white"/>
    <path d="M627.945 423.984L628.885 382.704L619.825 383.614L620.065 373.204L648.615 370.334L648.375 380.744L639.245 381.664L638.305 422.944L627.955 423.984H627.945Z" fill="white"/>
    <path d="M690.745 366.114L698.225 365.364L697.055 417.054L686.705 418.094L687.245 394.294L681.505 406.854L677.195 407.284L672.075 395.814L671.535 419.614L661.105 420.664L662.275 368.974L669.755 368.224L679.835 388.784L690.755 366.114H690.745Z" fill="white"/>
    <path d="M702.805 416.464L703.975 364.774L714.325 363.734L713.155 415.424L702.805 416.464Z" fill="white"/>
    <path d="M725.815 414.154L726.755 372.874L717.695 373.784L717.935 363.374L746.485 360.504L746.245 370.914L737.115 371.834L736.175 413.114L725.825 414.154H725.815Z" fill="white"/>
    <path d="M788.965 356.244L788.105 394.314C788.015 398.314 786.275 402.054 783.485 404.874C780.695 407.764 776.985 409.734 773.035 410.134C769.085 410.534 765.455 409.294 762.775 406.954C760.025 404.684 758.455 401.284 758.545 397.284L759.405 359.214L769.685 358.184L768.825 396.254C768.775 398.514 770.965 399.884 773.195 399.664C775.425 399.444 777.615 397.624 777.665 395.364L778.525 357.294L788.955 356.244H788.965Z" fill="white"/>
    <path d="M824.845 352.634L823.675 404.324L814.185 405.274L803.605 381.574L803.045 406.394L792.695 407.434L793.865 355.744L803.645 354.904L813.915 379.584L814.505 353.664L824.855 352.624L824.845 352.634Z" fill="white"/>
    <path d="M843.485 350.184C851.755 349.354 858.145 355.394 857.955 363.764L847.165 364.844C847.235 361.934 845.315 360.894 843.015 361.124C840.715 361.354 839.245 363.024 839.205 364.704C839.165 366.454 839.795 367.334 842.185 369.124L850.785 375.814C855.725 379.604 857.565 383.484 857.495 386.614C857.305 394.984 850.605 402.344 842.345 403.174C834.085 404.004 827.685 397.964 827.875 389.594L838.585 388.514C838.725 391.694 839.995 392.874 842.435 392.634C844.665 392.414 846.195 391.094 846.255 388.764C846.295 387.014 845.245 385.744 841.655 382.764L833.135 375.704C830.455 373.504 828.385 369.934 828.485 365.564C828.655 358.064 835.345 351.004 843.615 350.174H843.475L843.485 350.184Z" fill="white"/>
    <path d="M866.545 389.994C869.135 389.734 871.755 391.214 871.675 394.704C871.605 397.834 868.825 400.294 866.305 400.544C863.855 400.794 861.105 398.884 861.175 395.754C861.245 392.694 863.955 390.244 866.475 389.994H866.545ZM861.635 365.794L862.015 348.904L873.805 347.724L873.425 364.614L870.105 384.344L863.995 384.954L861.635 365.794Z" fill="white"/>
</svg>
