<svg viewBox="0 0 202 39" fill="none" xmlns="http://www.w3.org/2000/svg" {{$attributes}}>
    <path d="M106.527 -6.36908e-07C100.705 -6.36908e-07 98.2207 2.40431 98.2207 8.03711L98.2227 9.10937C98.2252 14.4188 98.2275 20.5224 98.2286 20.6016L98.2403 21.3711H102.643V13.6484H122.57V21.3711H126.975L126.986 20.6016C126.988 20.4953 126.992 9.15324 126.992 8.03711C126.992 2.40431 124.51 -6.36908e-07 118.688 -6.36908e-07H106.527ZM106.818 3.70703H118.396C121.401 3.70703 122.57 4.64434 122.57 7.04687V9.99805H102.643V7.04687C102.643 4.64434 103.813 3.70703 106.818 3.70703Z" fill="white"/>
    <path d="M8.30625 6.36001e-06C2.48437 6.36001e-06 0 2.40267 0 8.03547V13.3344C0 18.9672 2.48437 21.3699 8.30625 21.3699H20.4667C26.2885 21.3699 28.7729 18.9672 28.7729 13.3344V9.96934H10.9536V13.6953C10.9536 13.6953 23.6948 13.6693 24.3489 13.6677C24.3489 13.9647 24.3489 14.3256 24.3489 14.3256C24.3489 16.7276 23.1787 17.6647 20.1751 17.6647H8.59792C5.59375 17.6647 4.42344 16.7276 4.42344 14.3256V7.04481C4.42344 4.64227 5.59375 3.70627 8.59792 3.70627H20.1751C22.1125 3.70627 23.2855 4.12601 23.8636 5.02707L23.9651 5.18547H28.5057L28.3896 4.75161C27.5052 1.46468 25.0615 6.36001e-06 20.4667 6.36001e-06H8.30625Z" fill="white"/>
    <path d="M40.8355 4.95933e-05C37.9246 4.95933e-05 35.937 0.583385 34.5807 1.83498C33.8027 2.46778 33.286 3.30165 33.0178 4.36938C32.8755 4.93605 32.8068 5.53125 32.8068 6.18965C32.8068 8.98698 33.7495 10.6375 35.862 11.5402C37.9339 12.4256 41.2079 12.5932 46.526 12.5932H52.5875C56.3255 12.5932 56.7292 13.2146 56.8907 14.0927C56.8907 14.1115 56.9536 14.8891 56.9536 14.8891C56.9531 16.6214 56.4068 17.2142 54.5188 17.5042C53.9834 17.6137 53.3954 17.6656 52.7031 17.6656H41.8334C40.362 17.6656 39.2918 17.536 38.5615 17.2699C38.1735 17.111 37.8615 16.8938 37.6172 16.611C37.6172 16.599 37.5292 16.4214 37.5292 16.4214L37.4344 16.2312L37.2088 16.2042H32.8807L32.9194 16.6662C33.1719 18.2642 34.0339 19.4495 35.486 20.2156C36.7479 20.9902 38.5042 21.3708 40.8355 21.3708H52.9948C54.2422 21.3708 55.3151 21.2594 56.2751 21.0298C59.7464 20.3902 61.5156 18.5199 61.5156 15.476V14.2194C61.5156 13.6246 61.4312 13.059 61.2636 12.5366C60.7974 11.0746 59.7031 10.061 57.9183 9.43858C56.4407 8.92298 54.4735 8.67192 51.9031 8.67192H42.4527C37.114 8.67192 37.114 7.70938 37.114 6.37712C37.114 5.47658 37.2776 4.91312 37.6422 4.54792C38.4844 3.70525 40.6328 3.70578 44.5328 3.70738H48.3183C54.0979 3.70738 55.7886 3.97872 56.185 4.97032L56.2714 5.18658H60.9418L60.8536 4.79325L60.6662 3.94018C60.435 3.19018 60.0407 2.56512 59.4588 2.03125C58.1479 0.651118 56.0886 4.95933e-05 52.9948 4.95933e-05H40.8355Z" fill="white"/>
    <path d="M73.3984 4.15979C68.2328 4.15979 65.6133 6.60124 65.6133 11.4215V14.1481C65.6133 18.9683 68.2328 21.4117 73.3984 21.4117H85.7852C90.9518 21.4117 93.5723 18.9683 93.5723 14.1481V11.4215C93.5723 6.60124 90.9518 4.15979 85.7852 4.15979H73.3984ZM73.3984 7.70471H85.7852C89.3904 7.70471 90.0254 8.90378 90.0254 11.4215V14.1481C90.0254 16.6651 89.3904 17.8649 85.7852 17.8649H73.3984C69.7948 17.8649 69.1602 16.6651 69.1602 14.1481V11.4215C69.1602 8.90378 69.7948 7.70471 73.3984 7.70471Z" fill="#FFE53E"/>
    <path d="M2.6448 35.5959V36.2027H4.10054V36.748C4.10054 37.5334 3.60934 38.1766 2.55467 38.1766C1.60827 38.1766 0.715072 37.5334 0.715072 35.4709C0.715072 33.4068 1.60827 32.7636 2.55467 32.7636C3.30467 32.7636 3.84106 33.1568 4.16293 34.1839L4.842 34.0501C4.44867 32.674 3.60933 32.1558 2.51813 32.1558C1.05466 32.1558 0 33.2105 0 35.4709C0 37.7297 1.05466 38.7844 2.51813 38.7844C3.2344 38.7844 3.8776 38.5605 4.20827 38.1058H4.22546V38.6943H4.81533V35.5959H2.6448ZM7.85266 32.8521H9.138C10.0593 32.8521 10.6487 33.111 10.6487 33.9782C10.6487 34.7912 10.1313 35.1568 9.14867 35.1568H7.85266V32.8521ZM7.85266 38.6943V35.7652H9.362L10.6673 38.6943H11.4433L10.078 35.6219C10.8367 35.3719 11.3633 34.8537 11.3633 33.9422C11.3633 32.8704 10.6047 32.2454 9.21134 32.2454H7.138V38.6943H7.85266ZM13.8833 32.2454V36.748C13.8833 38.0344 14.8113 38.7844 16.1433 38.7844C17.474 38.7844 18.4033 38.0344 18.4033 36.748V32.2454H17.6887V36.8016C17.6887 37.5516 17.1513 38.1766 16.1433 38.1766C15.134 38.1766 14.5967 37.5516 14.5967 36.8016V32.2454H13.8833ZM21.6913 32.8521H23.066C24.0313 32.8521 24.486 33.2636 24.486 34.0318C24.486 34.8001 24.094 35.2115 22.906 35.2115H21.6913V32.8521ZM21.6913 38.6943V35.8183H22.834C24.4593 35.8183 25.2007 35.1219 25.2007 34.0501C25.2007 33.0318 24.602 32.2454 23.2273 32.2454H20.9753V38.6943H21.6913ZM27.862 32.8521H29.2393C30.2033 32.8521 30.6593 33.2636 30.6593 34.0318C30.6593 34.8001 30.266 35.2115 29.0793 35.2115H27.862V32.8521ZM27.862 38.6943V35.8183H29.006C30.634 35.8183 31.374 35.1219 31.374 34.0501C31.374 33.0318 30.7753 32.2454 29.3993 32.2454H27.1487V38.6943H27.862ZM33.394 32.2454V38.6943H37.4393V38.0881H34.1073V35.6219H36.35V35.0152H34.1073V32.8521H37.2607V32.2454H33.394ZM42.9327 32.2454V38.6943H43.6487V35.6219H45.9527V35.0152H43.6487V32.8521H46.7567V32.2454H42.9327ZM52.0447 31.8167V30.9771H51.2593V31.8167H52.0447ZM50.6327 31.8167V30.9771H49.8473V31.8167H50.6327ZM48.686 32.2454V36.748C48.686 38.0344 49.614 38.7844 50.9447 38.7844C52.2767 38.7844 53.206 38.0344 53.206 36.748V32.2454H52.4927V36.8016C52.4927 37.5516 51.9553 38.1766 50.9447 38.1766C49.938 38.1766 49.4007 37.5516 49.4007 36.8016V32.2454H48.686ZM56.494 32.8521H57.7793C58.7007 32.8521 59.2887 33.111 59.2887 33.9782C59.2887 34.7912 58.7713 35.1568 57.7887 35.1568H56.494V32.8521ZM56.494 38.6943V35.7652H58.002L59.3073 38.6943H60.0847L58.7193 35.6219C59.4767 35.3719 60.0047 34.8537 60.0047 33.9422C60.0047 32.8704 59.2447 32.2454 57.8513 32.2454H55.778V38.6943H56.494ZM65.9633 32.2454V38.6943H70.01V38.0881H66.6767V35.6219H68.9193V35.0152H66.6767V32.8521H69.8313V32.2454H65.9633ZM72.2967 32.2454V38.6943H73.01V32.2454H72.2967ZM76.4687 38.6943V32.9422H76.4873L79.7553 38.6943H80.3447V32.2454H79.702V37.2115H79.666L76.8513 32.2454H75.826V38.6943H76.4687ZM82.99 32.2454V38.6943H87.0367V38.0881H83.7033V35.6219H85.946V35.0152H83.7033V32.8521H86.8567V32.2454H82.99ZM96.2807 33.7454C95.9433 32.6829 95.1567 32.1558 94.1567 32.1558C92.9953 32.1558 92.218 32.8886 92.218 33.8167C92.218 35.8547 95.8433 35.3719 95.8433 37.0162C95.8433 37.6766 95.3713 38.1766 94.4247 38.1766C93.4767 38.1766 92.9953 37.5516 92.7353 36.873L92.0833 37.1047C92.422 37.873 92.9767 38.7844 94.3887 38.7844C96.0313 38.7844 96.5593 37.8287 96.5593 36.8912C96.5593 34.8183 92.914 35.1751 92.9327 33.7636C92.9407 33.1204 93.3887 32.7636 94.138 32.7636C94.9687 32.7636 95.478 33.2636 95.638 33.8886L96.2807 33.7454ZM102.277 36.6396C102.079 37.4266 101.695 38.1766 100.703 38.1766C99.6327 38.1766 98.898 37.3381 98.898 35.4709C98.898 33.6204 99.6327 32.7636 100.561 32.7636C101.526 32.7636 101.938 33.3167 102.169 34.2282L102.831 34.0318C102.545 32.8521 101.847 32.1558 100.651 32.1558C99.0967 32.1558 98.1847 33.3704 98.1847 35.4709C98.1847 37.7297 99.2033 38.7844 100.651 38.7844C101.973 38.7844 102.633 37.9631 102.919 36.7652L102.277 36.6396ZM108.753 32.2454V35.0152H105.662V32.2454H104.947V38.6943H105.662V35.6219H108.753V38.6943H109.467V32.2454H108.753ZM112.95 38.6943H113.586L114.835 33.4782H114.854L116.177 38.6943H116.81L118.338 32.2454H117.659L116.479 37.3912H116.462L115.175 32.2454H114.542L113.291 37.3912H113.274L112.075 32.2454H111.397L112.95 38.6943ZM120.269 32.2454V38.6943H124.315V38.0881H120.982V35.6219H123.223V35.0152H120.982V32.8521H124.135V32.2454H120.269ZM126.602 32.2454V38.6943H127.315V32.2454H126.602ZM133.729 38.0881H130.406L133.694 32.7105V32.2454H129.862V32.8521H132.801L129.567 38.1766V38.6943H133.729V38.0881ZM139.455 35.4709C139.455 33.6386 140.126 32.7636 141.261 32.7636C142.395 32.7636 143.065 33.6386 143.065 35.4709C143.065 37.3016 142.395 38.1766 141.261 38.1766C140.126 38.1766 139.455 37.3016 139.455 35.4709ZM138.742 35.4709C138.742 37.623 139.679 38.7844 141.261 38.7844C142.841 38.7844 143.779 37.623 143.779 35.4709C143.779 33.3167 142.841 32.1558 141.261 32.1558C139.679 32.1558 138.742 33.3167 138.742 35.4709ZM149.729 32.2454V35.0152H146.638V32.2454H145.925V38.6943H146.638V35.6219H149.729V38.6943H150.443V32.2454H149.729ZM153.731 38.6943V32.9422H153.75L157.018 38.6943H157.61V32.2454H156.966V37.2115H156.93L154.114 32.2454H153.089V38.6943H153.731ZM160.253 32.2454V38.6943H164.299V38.0881H160.967V35.6219H163.21V35.0152H160.967V32.8521H164.119V32.2454H160.253ZM171.579 32.7454H171.678L172.607 36.0683H170.651L171.579 32.7454ZM169.865 38.6943L170.473 36.6766H172.786L173.393 38.6943H174.143L172.161 32.2454H171.098L169.114 38.6943H169.865ZM176.681 32.8521H177.967C178.887 32.8521 179.477 33.111 179.477 33.9782C179.477 34.7912 178.958 35.1568 177.977 35.1568H176.681V32.8521ZM176.681 38.6943V35.7652H178.19L179.495 38.6943H180.273L178.905 35.6219C179.665 35.3719 180.191 34.8537 180.191 33.9422C180.191 32.8704 179.433 32.2454 178.039 32.2454H175.966V38.6943H176.681ZM188.222 38.6943V32.2454H187.097L185.481 37.4631H185.462L183.819 32.2454H182.711V38.6943H183.354V32.799H183.381L185.194 38.6943H185.747L187.553 32.799H187.579V38.6943H188.222ZM190.867 32.2454V38.6943H194.914V38.0881H191.581V35.6219H193.825V35.0152H191.581V32.8521H194.734V32.2454H190.867ZM197.039 32.2454V38.6943H201.086V38.0881H197.754V35.6219H199.997V35.0152H197.754V32.8521H200.907V32.2454H197.039Z" fill="white"/>
</svg>
