<?xml version="1.0" standalone="no"?>
<!DOCTYPE svg PUBLIC "-//W3C//DTD SVG 20010904//EN"
 "http://www.w3.org/TR/2001/REC-SVG-20010904/DTD/svg10.dtd">
<svg version="1.0" xmlns="http://www.w3.org/2000/svg"
 width="540.000000pt" height="540.000000pt" viewBox="0 0 540.000000 540.000000"
 preserveAspectRatio="xMidYMid meet">
<metadata>
Created by potrace 1.14, written by Peter Selinger 2001-2017
</metadata>
<g transform="translate(0.000000,540.000000) scale(0.100000,-0.100000)"
fill="#000000" stroke="none">
<path d="M1956 3563 c-3 -10 -57 -214 -121 -453 -64 -239 -124 -451 -134 -470
-10 -21 -32 -42 -55 -54 -33 -16 -43 -17 -82 -6 -27 8 -55 25 -70 43 -23 27
-25 38 -22 94 2 50 0 64 -12 68 -8 2 -77 21 -154 41 -156 42 -151 43 -162 -44
-25 -198 62 -360 239 -447 252 -124 510 -58 615 157 19 40 77 237 156 532 69
259 124 471 123 473 -4 3 -300 83 -309 83 -4 0 -9 -8 -12 -17z"/>
<path d="M2524 2748 c-437 -626 -418 -598 -411 -604 6 -7 295 -84 312 -84 8 0
45 45 81 100 37 55 72 100 78 100 6 0 117 -29 246 -64 l235 -63 8 -123 c4 -68
9 -125 11 -127 4 -4 330 -92 332 -90 1 1 -26 324 -60 717 l-61 715 -170 47
c-93 26 -177 47 -186 47 -10 1 -160 -205 -415 -571z m523 -344 c-7 -7 -316 83
-313 91 2 6 66 105 142 220 l139 210 16 -260 c9 -143 16 -261 16 -261z"/>
<path d="M3996 3071 c-15 -52 -197 -884 -194 -886 5 -5 268 -74 268 -70 0 2
61 198 135 434 74 237 135 434 135 439 0 5 -37 19 -82 30 -46 12 -122 32 -170
46 -79 22 -88 22 -92 7z"/>
<path d="M3746 1997 c-25 -14 -48 -39 -63 -66 -65 -123 18 -253 171 -268 119
-11 214 94 192 213 -8 42 -68 112 -113 131 -51 21 -141 16 -187 -10z"/>
</g>
</svg>
