<?xml version="1.0" standalone="no"?>
<!DOCTYPE svg PUBLIC "-//W3C//DTD SVG 20010904//EN"
 "http://www.w3.org/TR/2001/REC-SVG-20010904/DTD/svg10.dtd">
<svg version="1.0" xmlns="http://www.w3.org/2000/svg"
 width="1560.000000pt" height="1560.000000pt" viewBox="0 0 1560.000000 1560.000000"
 preserveAspectRatio="xMidYMid meet">
<metadata>
Created by potrace 1.14, written by Peter Selinger 2001-2017
</metadata>
<g transform="translate(0.000000,1560.000000) scale(0.100000,-0.100000)"
fill="#000000" stroke="none">
<path d="M8045 14170 c-95 -15 -101 -17 -167 -72 -307 -255 -664 -658 -880
-993 -270 -418 -379 -767 -365 -1175 3 -91 12 -203 20 -250 18 -105 64 -281
89 -338 10 -24 18 -47 18 -52 0 -5 -163 85 -362 199 -200 114 -644 369 -988
566 -344 197 -792 454 -997 571 -205 118 -381 214 -391 214 -23 0 -202 -117
-307 -200 -110 -88 -263 -237 -353 -345 -143 -170 -297 -432 -295 -500 2 -46
132 -905 143 -946 6 -20 16 -42 24 -48 13 -11 134 -47 946 -285 217 -63 750
-219 1184 -346 433 -126 800 -230 815 -230 14 0 62 7 106 15 550 99 742 137
760 149 25 16 28 33 66 389 l22 207 76 -73 c60 -57 152 -136 180 -154 2 -1
-17 -53 -42 -115 -128 -321 -237 -706 -313 -1103 -9 -49 -18 -92 -20 -94 -2
-2 -112 95 -246 216 -403 363 -452 403 -496 403 -81 0 -3668 60 -3969 66 -177
4 -333 4 -347 0 -36 -9 -50 -42 -80 -186 -157 -756 -177 -1618 -55 -2430 151
-1008 543 -1958 1123 -2728 115 -152 279 -350 305 -368 30 -21 1218 -337 1243
-331 26 7 39 26 242 362 905 1499 1170 1941 1174 1960 2 12 -30 117 -72 232
-42 116 -76 216 -76 223 0 10 96 144 424 591 67 91 113 154 379 518 l113 155
99 43 c55 24 108 46 118 49 16 5 17 -7 17 -163 0 -183 21 -536 45 -770 l16
-146 -28 -30 c-50 -52 -136 -110 -252 -169 -62 -32 -119 -58 -127 -58 -17 0
-54 -48 -54 -70 0 -40 36 -66 112 -79 119 -22 237 -59 340 -108 96 -45 97 -46
103 -87 26 -165 138 -636 215 -901 22 -77 40 -143 40 -148 0 -4 -96 58 -214
138 -129 87 -224 145 -238 145 -13 0 -38 -10 -54 -22 -17 -13 -266 -230 -555
-484 -288 -253 -563 -494 -610 -535 -125 -108 -402 -351 -494 -434 -44 -39
-119 -105 -166 -146 -413 -356 -710 -625 -716 -647 -8 -35 23 -91 130 -235
151 -201 382 -427 587 -574 237 -170 359 -229 868 -419 229 -86 419 -158 421
-160 1 -1 -14 -53 -34 -114 -40 -119 -40 -150 -2 -174 41 -27 740 -146 855
-146 235 1 527 79 727 196 117 69 234 160 241 189 6 25 -9 67 -321 910 -51
138 -123 332 -160 432 -37 100 -76 190 -87 200 -11 10 -65 34 -121 54 -69 25
-101 41 -99 50 8 30 405 749 412 744 4 -2 15 -26 25 -52 84 -221 416 -909 600
-1243 143 -259 185 -295 340 -295 103 0 144 16 206 82 59 62 83 117 83 198 1
79 -13 113 -135 330 -235 419 -529 1059 -717 1560 -51 138 -212 615 -212 630
0 3 49 5 109 5 135 0 324 16 479 40 64 10 120 15 124 11 3 -3 21 -58 39 -121
l34 -115 5 -370 5 -370 329 -560 c323 -549 440 -748 490 -832 46 -77 30 -82
511 162 438 222 525 272 697 406 451 350 821 807 1073 1324 40 83 83 178 96
213 13 34 26 62 29 61 3 0 68 -77 145 -171 77 -94 151 -174 164 -180 41 -15
64 -3 183 95 62 51 127 104 144 117 36 29 285 233 521 428 l162 133 79 162
c317 646 499 1293 564 1997 16 178 16 698 -1 865 -31 324 -67 541 -136 822
-94 382 -239 772 -397 1073 -81 155 -101 180 -141 180 -18 0 -248 -53 -512
-117 l-480 -117 -580 33 c-319 18 -636 36 -705 41 -69 5 -219 14 -335 20
l-210 11 -505 -249 c-278 -136 -535 -263 -572 -281 -37 -18 -73 -41 -81 -50
-8 -9 -119 -248 -246 -532 l-231 -515 133 -668 c106 -531 137 -671 153 -685
15 -15 553 -328 758 -442 l49 -27 -44 -6 c-347 -41 -540 -89 -799 -198 -519
-219 -923 -554 -1202 -994 l-42 -68 -13 50 c-28 107 -113 549 -138 714 -31
206 -59 462 -76 685 -16 198 -16 820 0 1010 21 268 43 440 58 463 20 32 139
107 226 143 108 45 219 69 347 76 123 6 156 17 165 56 12 48 -9 72 -107 120
-185 90 -328 204 -408 323 -27 42 -53 86 -55 97 -9 34 159 526 184 541 4 3 36
-4 71 -15 145 -45 285 -63 495 -63 202 -1 261 5 434 46 185 43 428 148 581
251 36 24 112 75 170 114 511 341 808 822 900 1458 46 317 27 747 -50 1120
-26 129 -89 362 -106 397 -21 41 -40 47 -139 41 -218 -12 -416 75 -629 276
-190 180 -349 272 -520 302 -106 18 -285 7 -379 -24 l-78 -25 -65 29 c-104 47
-213 69 -364 74 -74 2 -162 0 -195 -5z m380 -164 c89 -24 233 -99 294 -153
l53 -48 -188 -1 c-205 0 -346 -17 -518 -60 -54 -13 -101 -22 -104 -19 -9 9 17
149 41 223 22 65 23 67 62 74 68 11 295 1 360 -16z m704 -42 c87 -21 203 -77
271 -130 30 -23 94 -80 141 -127 201 -197 460 -317 683 -317 l65 0 7 -36 c10
-54 -3 -196 -26 -294 -21 -88 -80 -220 -123 -278 l-25 -33 -50 68 c-68 92
-177 196 -292 280 -186 137 -290 276 -335 448 -8 32 -21 65 -28 73 -32 32
-263 116 -398 146 -16 3 -37 22 -54 48 -16 24 -53 69 -83 100 l-54 57 34 4
c83 10 206 6 267 -9z m-1322 -171 c-17 -84 -14 -426 5 -529 37 -192 108 -368
216 -529 72 -107 243 -293 326 -353 28 -20 53 -39 56 -42 6 -7 128 -86 180
-118 51 -30 360 -152 455 -179 11 -4 72 -29 135 -58 234 -104 376 -233 469
-424 l21 -45 -24 -115 c-36 -174 -90 -330 -166 -486 -236 -479 -610 -694
-1123 -646 -160 15 -287 41 -421 88 -590 204 -1019 711 -1132 1338 -24 135
-25 432 -1 560 54 285 140 488 334 784 149 227 312 428 541 663 74 76 136 138
137 138 1 0 -2 -21 -8 -47z m1106 -167 c104 -20 229 -56 312 -89 59 -25 60
-26 86 -94 74 -198 180 -330 378 -475 53 -39 113 -87 135 -107 47 -44 151
-172 171 -211 15 -29 15 -29 -43 -74 -58 -44 -171 -116 -183 -116 -4 0 -14 33
-23 73 -9 40 -29 100 -45 132 -40 84 -115 183 -145 191 -15 3 -56 -4 -103 -20
-137 -44 -140 -44 -212 10 -135 101 -252 286 -300 474 -10 39 -26 80 -37 90
-10 11 -55 29 -99 42 -69 18 -107 22 -270 22 -178 1 -196 -1 -289 -27 -55 -15
-142 -47 -193 -71 -107 -51 -98 -57 -109 80 l-6 91 98 26 c131 35 180 46 294
62 127 19 462 13 583 -9z m-185 -319 l53 -12 29 -87 c46 -138 120 -270 202
-363 16 -19 25 -35 18 -35 -36 0 -178 59 -265 110 -210 123 -389 148 -581 81
-43 -15 -86 -31 -95 -35 -14 -6 -24 10 -54 88 -21 52 -35 101 -32 110 8 20
151 92 236 118 153 48 349 58 489 25z m1687 -492 c22 -149 31 -556 16 -711
-37 -371 -161 -719 -349 -984 -79 -112 -255 -292 -364 -373 -91 -68 -238 -160
-244 -154 -3 2 6 17 18 33 146 181 318 642 322 864 1 75 -2 92 -28 145 -102
214 -294 388 -543 494 l-84 36 137 12 c254 23 446 84 654 205 109 63 285 237
347 343 30 51 93 183 93 195 0 37 10 -6 25 -105z m-1866 37 c30 -12 93 -43
140 -71 108 -62 216 -105 314 -125 134 -28 377 -17 478 22 24 10 28 7 56 -41
34 -57 58 -128 68 -198 l6 -46 -88 -21 c-252 -61 -552 -55 -848 17 -111 27
-113 28 -208 105 -53 42 -125 107 -162 145 -64 67 -145 168 -145 181 0 7 58
31 120 49 56 17 207 7 269 -17z m-3100 -986 c776 -445 1408 -812 1404 -816 -4
-4 -141 -24 -304 -45 l-296 -38 -1504 438 c-827 240 -1505 439 -1507 440 -6 5
39 88 93 170 138 213 349 427 595 604 47 33 90 60 96 58 6 -1 647 -366 1423
-811z m7760 -1371 c280 -543 460 -1205 512 -1876 15 -203 7 -725 -15 -909 -75
-632 -235 -1190 -503 -1752 -31 -65 -60 -118 -64 -118 -4 0 -368 416 -808 924
l-800 923 -898 483 c-494 265 -902 486 -906 490 -12 10 -378 1281 -375 1299 2
8 237 129 523 270 l521 257 906 -53 906 -53 463 114 c255 63 468 113 473 112
5 -1 34 -51 65 -111z m-5554 -180 c66 -33 121 -60 122 -61 1 0 -18 -52 -43
-115 -203 -515 -332 -1154 -375 -1854 -15 -241 -6 -829 15 -1065 43 -461 120
-931 223 -1348 19 -79 33 -153 30 -165 -3 -12 -22 -69 -42 -125 -32 -90 -35
-107 -25 -132 15 -35 29 -42 104 -49 l59 -6 72 -225 c118 -371 252 -721 428
-1120 102 -232 368 -765 483 -970 80 -141 88 -160 88 -210 1 -70 -26 -112 -89
-136 -38 -14 -52 -15 -85 -5 -22 6 -51 22 -64 34 -55 50 -426 773 -609 1187
-169 381 -170 385 -221 681 -25 145 -51 281 -56 302 -9 31 -23 46 -80 84 l-70
46 -29 91 c-75 234 -167 582 -231 868 -34 156 -34 158 -18 158 23 0 48 34 48
66 0 40 -30 77 -113 140 -76 57 -177 108 -280 143 l-77 26 82 55 c99 65 235
198 265 258 28 57 17 96 -33 114 -19 6 -34 17 -34 23 0 6 -7 89 -15 185 -18
197 -34 670 -27 772 3 55 8 68 23 73 11 4 33 18 49 32 44 36 40 69 -17 138
-54 67 -53 57 -27 345 45 515 138 984 281 1425 72 220 147 409 161 403 4 -2
61 -30 127 -63z m-1468 -679 c7 -6 -172 -754 -184 -767 -13 -15 -20 -15 -66
-3 -29 7 -110 23 -182 36 -115 20 -164 23 -435 23 -332 0 -401 -7 -638 -65
-322 -79 -634 -230 -872 -421 -131 -105 -170 -150 -170 -194 0 -27 7 -39 33
-59 113 -85 398 -236 615 -325 206 -84 505 -174 656 -196 25 -4 46 -12 46 -17
0 -5 -99 -129 -220 -276 -158 -191 -220 -274 -220 -292 0 -14 36 -125 80 -248
44 -122 80 -227 80 -232 0 -13 -1418 -2274 -1429 -2278 -16 -5 -263 316 -398
518 -575 862 -906 1868 -983 2990 -22 323 -11 851 26 1200 23 222 91 640 108
668 3 6 4147 -56 4153 -62z m1732 -409 c33 -22 49 -38 40 -40 -8 -2 -50 -14
-94 -26 -44 -12 -122 -42 -174 -67 -52 -24 -96 -43 -98 -40 -3 3 47 263 74
382 4 18 19 7 101 -76 54 -53 121 -113 151 -133z m-2224 -461 c352 -56 693
-187 972 -375 67 -45 125 -85 128 -90 3 -5 -19 -3 -47 5 -414 111 -1118 175
-1593 146 -165 -11 -171 -12 -192 -37 -28 -32 -29 -55 -3 -88 l21 -26 297 6
c416 8 730 -13 1090 -73 156 -25 444 -93 503 -117 l33 -13 -109 -48 c-346
-153 -726 -255 -1069 -287 -159 -15 -491 -6 -631 16 -314 50 -625 147 -933
291 -131 62 -332 174 -332 185 0 5 31 33 69 64 297 240 722 408 1151 454 126
14 526 6 645 -13z m4517 -1751 c136 -18 328 -63 328 -78 0 -35 -384 -497 -413
-497 -7 0 -103 37 -212 82 l-200 82 -289 4 -290 3 -65 -69 c-59 -62 -77 -74
-176 -117 -336 -146 -694 -358 -957 -569 -60 -47 -108 -84 -108 -81 0 3 26 48
57 101 171 285 439 560 728 746 323 209 726 356 1080 396 126 15 399 13 517
-3z m445 -313 c44 -26 83 -64 139 -132 43 -52 145 -175 227 -273 82 -98 147
-180 144 -183 -2 -3 -104 15 -226 40 -208 42 -236 50 -441 132 l-219 87 40 46
c100 114 200 234 230 276 18 25 35 45 38 45 3 -1 34 -17 68 -38z m-482 -443
l500 -200 617 -123 c340 -67 620 -125 623 -127 13 -14 -81 -327 -155 -514
-135 -340 -332 -680 -556 -960 -114 -142 -399 -427 -539 -539 -105 -83 -266
-198 -271 -193 -1 1 -187 319 -413 707 l-411 704 0 339 0 339 -150 379 c-82
209 -150 382 -150 384 0 3 91 5 203 5 l202 0 500 -201z m-1511 -166 c-48 -54
-110 -121 -136 -150 -26 -28 -48 -61 -48 -73 0 -11 16 -77 36 -146 20 -69 34
-127 32 -129 -6 -7 -136 -25 -277 -40 -75 -8 -212 -15 -306 -14 l-170 0 55 50
c141 130 368 299 565 419 91 56 317 180 329 180 5 0 -31 -44 -80 -97z m-1830
-1029 l24 -199 -701 -1265 c-385 -696 -704 -1270 -709 -1277 -12 -15 -45 0
-198 92 -255 153 -497 367 -697 615 -83 104 -118 159 -107 170 50 48 2359
2069 2361 2066 2 -2 15 -93 27 -202z m296 -2512 c116 -365 209 -670 206 -677
-7 -19 -211 -118 -310 -150 -177 -59 -399 -89 -561 -76 -66 5 -80 9 -79 23 3
32 519 1557 525 1550 4 -4 102 -305 219 -670z"/>
<path d="M4041 12396 c-71 -39 -64 -156 11 -187 41 -17 99 -5 126 26 34 40 31
108 -7 146 -33 32 -87 39 -130 15z"/>
<path d="M3744 12105 c-43 -18 -64 -51 -64 -100 0 -48 18 -78 59 -95 44 -18
95 -5 125 31 71 84 -19 207 -120 164z"/>
<path d="M12825 10166 c-61 -27 -85 -82 -61 -140 39 -94 183 -79 202 21 16 84
-65 152 -141 119z"/>
<path d="M12964 9776 c-115 -50 -64 -225 59 -202 48 9 87 55 87 105 0 46 -23
79 -66 97 -40 17 -41 17 -80 0z"/>
<path d="M13029 9351 c-66 -66 -18 -181 76 -181 81 0 129 85 90 160 -19 37
-43 50 -95 50 -33 0 -48 -6 -71 -29z"/>
<path d="M13145 8973 c-62 -16 -99 -85 -76 -142 18 -42 44 -62 88 -67 83 -11
144 73 109 148 -22 46 -74 72 -121 61z"/>
<path d="M13148 8544 c-36 -19 -48 -43 -48 -94 0 -81 82 -125 159 -86 30 16
51 53 51 91 0 82 -87 130 -162 89z"/>
<path d="M13149 8127 c-70 -47 -60 -151 17 -183 73 -31 144 15 144 93 0 53
-21 88 -62 102 -45 16 -61 14 -99 -12z"/>
<path d="M13114 7715 c-54 -37 -55 -125 -3 -169 35 -30 76 -33 119 -11 37 19
50 43 50 95 0 59 -41 100 -102 100 -24 0 -53 -7 -64 -15z"/>
<path d="M13061 7313 c-72 -36 -76 -142 -8 -183 40 -25 73 -25 113 -1 44 27
60 71 45 122 -20 65 -88 93 -150 62z"/>
<path d="M12952 6915 c-72 -32 -78 -144 -9 -185 40 -25 73 -25 113 -1 44 27
60 71 45 122 -19 63 -86 92 -149 64z"/>
<path d="M2426 9405 c-16 -9 -35 -23 -42 -33 -36 -49 -18 -129 35 -156 41 -22
72 -20 112 7 69 46 60 151 -16 183 -43 18 -53 18 -89 -1z"/>
<path d="M2365 8968 c-51 -45 -42 -144 16 -173 78 -41 158 7 159 93 0 35 -6
49 -29 73 -38 38 -106 41 -146 7z"/>
<path d="M2368 8554 c-36 -19 -48 -43 -48 -94 0 -108 149 -140 199 -43 48 94
-56 189 -151 137z"/>
<path d="M2384 8135 c-81 -41 -66 -177 22 -199 36 -9 90 10 114 41 68 86 -37
208 -136 158z"/>
<path d="M2423 7715 c-42 -18 -68 -70 -59 -117 20 -106 176 -116 205 -12 14
51 -9 107 -54 128 -40 19 -51 19 -92 1z"/>
<path d="M2480 7292 c-44 -21 -62 -56 -56 -105 8 -70 68 -109 135 -88 47 13
72 49 73 100 0 47 -18 77 -58 96 -41 19 -51 19 -94 -3z"/>
<path d="M2539 6861 c-66 -66 -17 -181 77 -181 60 0 103 45 104 108 0 63 -40
102 -105 102 -38 0 -52 -5 -76 -29z"/>
<path d="M2694 6481 c-81 -35 -84 -168 -5 -201 91 -37 177 50 141 144 -17 45
-90 76 -136 57z"/>
<path d="M2828 6074 c-36 -19 -48 -43 -48 -94 0 -58 42 -100 100 -100 52 0 76
13 95 50 52 101 -47 199 -147 144z"/>
<path d="M3012 5694 c-12 -8 -29 -29 -38 -46 -53 -102 81 -197 168 -119 28 25
33 36 33 76 0 40 -5 51 -33 76 -37 33 -93 39 -130 13z"/>
<path d="M3219 5321 c-63 -63 -20 -181 66 -181 92 0 142 79 100 160 -19 37
-43 50 -95 50 -33 0 -48 -6 -71 -29z"/>
<path d="M11334 5676 c-42 -18 -64 -52 -64 -97 0 -48 39 -96 85 -105 42 -8 98
18 114 52 42 94 -44 190 -135 150z"/>
<path d="M11184 5280 c-12 -4 -31 -21 -43 -36 -61 -77 21 -195 115 -164 47 16
74 54 74 104 -1 79 -72 126 -146 96z"/>
<path d="M10958 4904 c-36 -19 -48 -43 -48 -94 0 -81 82 -125 159 -86 30 16
51 53 51 91 0 82 -87 130 -162 89z"/>
<path d="M10669 4561 c-66 -66 -17 -181 77 -181 92 0 140 116 75 181 -24 24
-38 29 -76 29 -38 0 -52 -5 -76 -29z"/>
<path d="M10373 4301 c-38 -24 -53 -49 -53 -90 0 -46 19 -78 57 -96 92 -44
180 42 143 139 -20 54 -96 78 -147 47z"/>
<path d="M4971 3316 c-30 -16 -50 -52 -51 -89 -1 -84 83 -132 160 -92 37 19
50 43 50 95 0 80 -86 126 -159 86z"/>
<path d="M5278 3011 c-28 -25 -33 -36 -33 -76 0 -40 5 -51 33 -76 87 -78 221
17 168 119 -35 69 -112 83 -168 33z"/>
<path d="M6833 2085 c-34 -15 -63 -59 -63 -98 0 -13 10 -39 23 -58 49 -74 157
-58 186 26 12 36 12 45 -3 77 -11 22 -31 43 -51 52 -40 19 -51 19 -92 1z"/>
<path d="M12610 12703 c-8 -3 -78 -36 -155 -73 -77 -36 -441 -207 -808 -380
l-669 -314 -139 -183 c-76 -101 -145 -194 -153 -206 -9 -13 -31 -149 -56 -346
-45 -345 -45 -364 2 -376 21 -5 1963 341 2051 365 20 6 43 21 51 33 8 12 67
175 132 361 l117 340 -7 89 c-19 254 -110 500 -234 638 -45 49 -59 59 -85 58
-18 0 -39 -3 -47 -6z m61 -195 c43 -58 93 -167 118 -258 24 -90 48 -247 38
-257 -9 -8 -1899 -385 -1905 -379 -2 3 31 51 74 107 l79 102 770 363 c424 199
776 363 782 363 7 1 27 -18 44 -41z"/>
<path d="M12523 12325 c-66 -28 -81 -125 -29 -174 76 -72 199 -1 179 103 -6
27 -48 76 -67 76 -6 0 -20 2 -31 5 -11 3 -35 -2 -52 -10z"/>
</g>
</svg>
